# xmcd
#
# Track frame offsets: 
#        150
#        12556
#        24716
#        39876
#        53680
#        68495
#        82281
#        100506
#        115812
#        129103
#        147458
#        164771
#        179003
#        191606
#
# Disc length: 2726 seconds
#
# Revision: 0
# Processed by: cddbd v1.5.2PL0 Copyright (c) Steve Scherf et al.
# Submitted via: ExactAudioCopy v0.99pb5
#
DISCID=be0aa40e
DTITLE=Nathan Carter - Where I Wanna Be
DYEAR=2013
DGENRE=Country
TTITLE0=Welcome To The Weekend
TTITLE1=Ho Hey
TTITLE2=Precious Time
TTITLE3=South Australia
TTITLE4=Eighteen Wheels And A Dozen Roses
TTITLE5=Where Did I Go Wrong?
TTITLE6=Twelfth Of Never
TTITLE7=Where I Wanna Be
TTITLE8=The Road Back
TTITLE9=Boys Of Summer
TTITLE10=On The Other Side
TTITLE11=Let Me Be There
TTITLE12=Saw You Running
TTITLE13=Brightest Lights
EXTD=
EXTT0=
EXTT1=
EXTT2=
EXTT3=
EXTT4=
EXTT5=
EXTT6=
EXTT7=
EXTT8=
EXTT9=
EXTT10=
EXTT11=
EXTT12=
EXTT13=
PLAYORDER=
